<svg width="1200" height="1200" viewBox="0 0 1200 1200" fill="none" xmlns="http://www.w3.org/2000/svg">
<path d="M897.559 297.96C904.895 304.366 911.739 310.959 917.647 318.703C917.647 320.185 917.647 321.666 917.647 323.192C918.638 323.192 919.63 323.192 920.651 323.192C937.524 357.54 942.803 400.429 931.551 437.405C930.928 439.216 930.304 441.027 929.662 442.893C929.179 444.303 929.179 444.303 928.687 445.741C923.5 460.533 916.216 474.103 908.636 487.781C906.451 491.748 904.468 495.607 902.628 499.751C904.513 505.383 906.675 505.811 911.64 508.728C911.64 509.716 911.64 510.703 911.64 511.721C913.173 512.23 913.173 512.23 914.737 512.749C920.199 515.18 925.199 518.197 929.662 522.194C929.662 523.182 929.662 524.17 929.662 525.187C930.475 525.511 931.288 525.835 932.126 526.169C936.896 528.875 940.487 532.544 944.305 536.409C945.066 537.155 945.827 537.902 946.611 538.671C952.19 544.259 952.19 544.259 952.19 547.631C953.181 547.631 954.173 547.631 955.194 547.631C969.77 565.376 978.46 584.849 982.228 607.481C982.425 608.639 982.623 609.796 982.826 610.988C985.238 627.354 982.522 642.371 979.224 658.354C978.951 659.733 978.678 661.112 978.397 662.533C975.41 674.619 968.329 685.655 961.201 695.761C960.21 695.761 959.219 695.761 958.198 695.761C957.832 696.603 957.466 697.446 957.089 698.315C944.316 721.44 910.927 735.608 887.046 742.706C875.538 745.599 864.854 745.737 853.066 745.137C853.066 744.15 853.066 743.162 853.066 742.145C853.941 741.925 854.817 741.705 855.718 741.478C880.969 734.596 901.53 720.615 915.289 698.256C924.103 682.175 926.004 664.726 925.907 646.665C925.898 643.922 925.898 643.922 925.888 641.125C925.533 622.304 921.669 606.547 911.516 590.426C910.138 588.03 910.138 588.03 910.138 585.037C909.146 585.037 908.155 585.037 907.134 585.037C904.91 582.407 904.91 582.407 902.347 578.865C898.175 573.352 893.944 568.933 888.566 564.61C885.003 561.688 881.859 558.361 878.598 555.112C877.607 554.618 876.616 554.125 875.595 553.616C875.595 552.628 875.595 551.641 875.595 550.623C871.134 549.142 871.134 549.142 866.583 547.631C866.583 548.618 866.583 549.606 866.583 550.623C865.592 550.623 864.601 550.623 863.579 550.623C863.579 551.611 863.579 552.598 863.579 553.616C862.588 553.616 861.597 553.616 860.576 553.616C860.237 554.43 859.898 555.244 859.549 556.082C856.953 560.703 853.599 564.156 849.969 568.017C844.933 573.13 844.933 573.13 841.051 579.052C840.06 579.052 839.069 579.052 838.048 579.052C838.048 580.04 838.048 581.027 838.048 582.045C837.056 582.045 836.065 582.045 835.044 582.045C835.044 583.032 835.044 584.02 835.044 585.037C834.053 585.037 833.061 585.037 832.04 585.037C832.04 586.025 832.04 587.012 832.04 588.03C831.049 588.03 830.058 588.03 829.036 588.03C829.036 589.017 829.036 590.005 829.036 591.022C828.045 591.022 827.054 591.022 826.033 591.022C825.63 591.917 825.227 592.812 824.812 593.734C823.03 597.005 821.383 599.122 818.523 601.496C817.532 601.496 816.541 601.496 815.519 601.496C815.519 602.484 815.519 603.471 815.519 604.489C814.528 604.489 813.537 604.489 812.516 604.489C812.516 605.476 812.516 606.464 812.516 607.481C810.627 609.433 810.627 609.433 807.822 611.783C806.74 612.701 805.658 613.619 804.543 614.565C803.209 615.684 801.875 616.802 800.501 617.955C797.831 620.213 795.165 622.476 792.502 624.742C790.672 626.298 788.84 627.85 787.004 629.398C781.747 633.858 776.779 638.46 771.965 643.391C772.749 644.682 773.533 645.972 774.341 647.302C780.917 658.156 787.386 669.065 793.742 680.05C802.646 695.424 811.64 710.733 821.245 725.686C832.04 742.493 832.04 742.493 832.04 748.13C833.031 748.13 834.023 748.13 835.044 748.13C837.249 751.426 839.264 754.706 841.239 758.136C842.46 760.209 843.683 762.282 844.906 764.355C845.52 765.402 846.134 766.449 846.766 767.528C853.989 779.785 861.622 791.768 869.599 803.55C871.584 806.489 873.547 809.442 875.489 812.41C881.524 821.61 887.888 830.402 894.763 838.989C897.653 842.634 899.637 845.424 901.126 849.875C902.118 849.875 903.109 849.875 904.13 849.875C906.301 852.125 906.301 852.125 908.824 855.206C913.582 860.824 918.69 865.515 924.4 870.157C925.145 870.87 925.89 871.584 926.658 872.319C926.658 873.307 926.658 874.294 926.658 875.312C927.65 875.312 928.641 875.312 929.662 875.312C929.662 876.299 929.662 877.287 929.662 878.304C930.5 878.686 931.339 879.068 932.202 879.461C936.152 881.552 939.515 884.036 943.085 886.721C973.236 908.733 1008.16 926.164 1045.31 932.17C1047.96 932.627 1047.96 932.627 1050.67 933.093C1078.89 937.31 1106.98 935.763 1135.04 931.218C1139.66 930.474 1144.3 929.823 1148.94 929.177C1148.94 930.165 1148.94 931.152 1148.94 932.17C1073.75 955.068 985.484 952.219 914.643 917.207C913.63 916.708 912.616 916.209 911.572 915.695C887.716 903.714 864.329 886.799 847.059 866.334C847.059 865.347 847.059 864.359 847.059 863.342C846.068 863.342 845.076 863.342 844.055 863.342C844.055 862.354 844.055 861.367 844.055 860.349C843.064 860.349 842.073 860.349 841.051 860.349C840.06 857.88 839.069 855.411 838.048 852.868C837.056 852.868 836.065 852.868 835.044 852.868C832.78 849.99 830.759 847.131 828.755 844.077C828.112 843.108 827.47 842.139 826.808 841.141C814.951 822.93 804.488 803.819 793.754 784.94C788.533 775.767 783.118 766.786 777.386 757.92C767.459 742.293 767.459 742.293 767.459 736.16C766.468 736.16 765.477 736.16 764.456 736.16C763.921 735.167 763.385 734.174 762.834 733.151C757.28 722.916 751.474 712.861 745.494 702.868C740.233 694.051 734.986 685.234 729.912 676.309C726.939 677.297 723.965 678.284 720.901 679.302C720.958 698.722 721.048 718.141 721.177 737.561C721.237 746.579 721.285 755.597 721.308 764.616C721.331 773.328 721.383 782.04 721.454 790.752C721.476 794.067 721.488 797.382 721.49 800.696C721.32 824.453 721.32 824.453 728.411 846.883C728.96 848.865 729.477 850.858 729.912 852.868C730.904 852.868 731.895 852.868 732.916 852.868C733.814 853.979 734.713 855.09 735.638 856.234C741.886 862.813 751.49 864.017 759.95 866.334C762.96 867.313 765.966 868.305 768.961 869.327C768.961 869.82 768.961 870.314 768.961 870.823C719.399 870.823 669.837 870.823 618.773 870.823C619.269 869.835 619.765 868.848 620.275 867.83C624.092 866.855 627.874 866.011 631.727 865.212C641.177 863.01 648.975 861.152 654.819 852.868C665.47 835.173 665.785 815.546 665.954 795.425C665.982 793.271 666.011 791.116 666.042 788.961C666.118 783.353 666.178 777.745 666.234 772.136C666.295 766.388 666.371 760.64 666.446 754.892C666.591 743.66 666.718 732.429 666.834 721.197C666.001 721.845 665.169 722.493 664.311 723.161C662.679 724.411 662.679 724.411 661.014 725.686C659.393 726.936 659.393 726.936 657.74 728.211C654.819 730.175 654.819 730.175 651.815 730.175C651.815 731.162 651.815 732.15 651.815 733.167C649.781 735.007 649.781 735.007 646.916 737.083C645.863 737.86 644.81 738.637 643.725 739.437C642.585 740.269 641.444 741.101 640.269 741.958C630.52 749.189 621.389 756.736 612.671 765.175C607.044 770.574 607.044 770.574 603.755 770.574C603.755 771.561 603.755 772.549 603.755 773.566C601.179 776.044 601.179 776.044 597.841 778.803C593.361 782.378 593.361 782.378 590.238 787.032C589.247 787.032 588.255 787.032 587.234 787.032C587.234 788.02 587.234 789.007 587.234 790.025C586.243 790.025 585.252 790.025 584.23 790.025C584.23 791.012 584.23 792 584.23 793.017C583.239 793.017 582.248 793.017 581.227 793.017C580.855 793.851 580.483 794.684 580.1 795.542C577.878 799.637 575.317 803.007 572.215 806.484C571.224 806.484 570.233 806.484 569.212 806.484C568.637 807.713 568.637 807.713 568.05 808.968C565.893 813.066 563.379 816.78 560.763 820.605C532.454 862.782 514.669 908.067 524.273 959.747C528.592 979.252 536.293 997.076 548.784 1012.76C551.189 1015.96 551.189 1015.96 552.691 1020.45C553.682 1020.45 554.673 1020.45 555.695 1020.45C555.695 1021.44 555.695 1022.42 555.695 1023.44C556.686 1023.44 557.677 1023.44 558.698 1023.44C560.371 1025.62 560.371 1025.62 562.078 1027.84C569.302 1036.46 579.091 1041.83 588.736 1047.38C589.678 1047.92 590.62 1048.47 591.591 1049.03C618.869 1064.41 644.744 1068.19 675.845 1066.83C670.192 1071.47 665.643 1072.17 658.479 1072.44C657.408 1072.49 656.337 1072.55 655.234 1072.6C630.046 1073.58 606.46 1066.46 584.23 1054.86C584.23 1053.88 584.23 1052.89 584.23 1051.87C583.367 1051.72 582.503 1051.56 581.614 1051.4C567.758 1047.2 553.304 1030.87 543.68 1020.45C543.68 1019.46 543.68 1018.47 543.68 1017.46C542.688 1017.46 541.697 1017.46 540.676 1017.46C530.511 1004.31 523.231 989.83 518.148 974.065C517.832 973.103 517.516 972.141 517.191 971.15C507.911 941.447 508.638 906.35 518.148 876.808C518.462 875.802 518.775 874.796 519.099 873.759C525.789 852.855 536.838 834.477 548.842 816.209C549.481 815.231 550.119 814.253 550.777 813.246C552.333 810.934 554.004 808.7 555.695 806.484C556.686 806.484 557.677 806.484 558.698 806.484C559.69 804.015 560.681 801.546 561.702 799.002C562.693 799.002 563.685 799.002 564.706 799.002C565.31 797.706 565.31 797.706 565.926 796.384C567.754 792.934 569.667 789.994 572.215 787.032C573.207 787.032 574.198 787.032 575.219 787.032C575.219 786.045 575.219 785.057 575.219 784.04C576.21 784.04 577.202 784.04 578.223 784.04C578.593 783.164 578.962 782.289 579.343 781.386C581.518 777.54 583.919 775.43 587.328 772.631C591.708 769.145 591.708 769.145 594.743 764.588C595.735 764.588 596.726 764.588 597.747 764.588C597.747 763.601 597.747 762.613 597.747 761.596C599.981 759.57 602.319 757.659 604.693 755.798C609.858 751.697 614.959 747.569 619.941 743.249C620.885 742.43 621.83 741.611 622.803 740.767C624.67 739.142 626.532 737.512 628.39 735.877C634.965 730.175 634.965 730.175 638.298 730.175C638.298 729.187 638.298 728.199 638.298 727.182C640.848 725.119 643.495 723.173 646.183 721.29C647.646 720.259 649.11 719.227 650.618 718.164C652.004 717.19 653.39 716.215 654.819 715.212C656.48 713.913 656.48 713.913 658.174 712.588C660.826 710.723 660.826 710.723 663.83 710.723C663.83 709.736 663.83 708.748 663.83 707.731C664.821 707.731 665.812 707.731 666.834 707.731C666.707 676.852 666.564 645.974 666.402 615.096C666.327 600.757 666.257 586.419 666.2 572.08C666.15 559.575 666.09 547.071 666.018 534.566C665.981 527.951 665.948 521.337 665.927 514.722C665.908 508.482 665.875 502.242 665.831 496.002C665.818 493.725 665.809 491.448 665.806 489.172C665.778 471.672 665.512 454.422 657.822 438.404C657.822 436.923 657.822 435.441 657.822 433.915C656.831 433.915 655.84 433.915 654.819 433.915C653.796 432.526 652.774 431.138 651.721 429.707C644.095 420.266 630.099 419.459 618.773 417.456C618.773 416.469 618.773 415.481 618.773 414.464C637.111 414.464 655.449 414.464 674.343 414.464C676.263 418.723 678.184 422.981 680.163 427.369C687.135 442.371 695.727 455.271 706.322 467.967C708.886 471.322 708.886 471.322 708.886 474.314C709.877 474.314 710.869 474.314 711.89 474.314C711.89 475.302 711.89 476.289 711.89 477.307C712.881 477.307 713.872 477.307 714.894 477.307C714.894 478.294 714.894 479.282 714.894 480.299C715.885 480.299 716.876 480.299 717.897 480.299C717.897 481.287 717.897 482.274 717.897 483.292C718.889 483.292 719.88 483.292 720.901 483.292C721.397 543.037 721.892 602.783 722.403 664.339C731.735 657.578 740.839 650.974 749.771 643.766C752.441 641.895 752.441 641.895 755.444 641.895C755.444 640.908 755.444 639.92 755.444 638.903C758.399 636.448 761.36 634.155 764.456 631.889C771.52 626.622 778.278 621.223 784.749 615.231C786.984 613.466 786.984 613.466 789.987 613.466C789.987 612.479 789.987 611.491 789.987 610.474C790.979 610.474 791.97 610.474 792.991 610.474C792.991 609.486 792.991 608.499 792.991 607.481C794.933 605.529 794.933 605.529 797.778 603.18C823.988 582.451 823.988 582.451 844.055 556.608C845.046 556.608 846.038 556.608 847.059 556.608C847.059 555.621 847.059 554.633 847.059 553.616C848.05 553.616 849.041 553.616 850.063 553.616C850.465 552.752 850.868 551.888 851.283 550.997C853.066 547.631 853.066 547.631 855.601 544.545C856.251 543.588 856.902 542.632 857.572 541.646C857.076 540.165 856.581 538.683 856.07 537.157C854.258 536.602 854.258 536.602 852.409 536.035C847.338 534.262 844.388 532.43 840.113 529.302C834.916 525.562 829.838 522.436 824.061 519.67C804.409 510.22 785.678 498.789 766.99 487.593C765.823 486.904 764.657 486.214 763.455 485.503C760.731 483.853 758.079 482.087 755.444 480.299C755.444 479.312 755.444 478.324 755.444 477.307C754.36 476.936 753.276 476.566 752.159 476.184C744.338 472.721 738.826 466.887 732.916 460.848C731.77 459.768 730.624 458.688 729.443 457.575C726.909 454.863 726.909 454.863 726.909 451.87C725.917 451.87 724.926 451.87 723.905 451.87C721.64 449.357 721.64 449.357 719.212 446.072C718.402 444.996 717.593 443.92 716.759 442.811C714.894 439.9 714.894 439.9 714.894 436.908C713.902 436.908 712.911 436.908 711.89 436.908C703.016 422.885 697.489 407.158 696.871 390.524C696.811 388.923 696.751 387.322 696.689 385.673C696.167 357.727 702.701 332.958 721.629 311.765C723.905 309.726 723.905 309.726 726.909 309.726C726.909 308.738 726.909 307.751 726.909 306.733C727.9 306.733 728.891 306.733 729.912 306.733C729.912 305.746 729.912 304.758 729.912 303.741C747.135 290.176 765.849 283.181 786.984 278.304C789.078 277.792 789.078 277.792 791.214 277.27C826.761 269.898 868.854 274.682 897.559 297.96ZM758.02 316.687C755.149 319.877 755.149 319.877 755.444 323.192C754.453 323.192 753.462 323.192 752.441 323.192C751.511 324.92 750.582 326.648 749.625 328.429C749.102 329.401 748.579 330.373 748.041 331.375C740.573 348.97 740.5 371.833 747.513 389.524C750.683 396.102 753.95 402.691 758.448 408.479C759.439 408.479 760.431 408.479 761.452 408.479C761.452 409.466 761.452 410.454 761.452 411.471C762.443 411.471 763.434 411.471 764.456 411.471C764.785 412.303 765.114 413.134 765.453 413.99C768.118 418.594 771.55 421.506 775.532 425.031C776.968 426.314 778.405 427.596 779.885 428.918C785.698 434.624 785.698 434.624 792.991 436.908C792.991 437.895 792.991 438.883 792.991 439.9C796.695 442.572 800.395 445.046 804.255 447.475C805.406 448.207 806.556 448.94 807.741 449.695C818.225 456.304 828.979 462.361 839.845 468.319C843.86 470.552 847.802 472.904 851.752 475.249C859.937 480.044 868.34 484.24 876.856 488.412C882.074 491.008 887.105 493.787 892.115 496.758C920.176 454.111 932.806 408.057 922.452 357.746C919.205 343.269 913.149 329.117 904.13 317.207C903.139 317.207 902.148 317.207 901.126 317.207C901.126 316.219 901.126 315.232 901.126 314.214C895.9 308.774 895.9 308.774 889.111 306.733C889.111 305.746 889.111 304.758 889.111 303.741C871.758 289.319 848.628 284.99 826.783 284.944C824.338 284.938 824.338 284.938 821.844 284.933C795.771 285.471 774.939 297.122 758.02 316.687Z" fill="#FEFEFE"/>
<path d="M361.952 215.461C476.441 215.461 590.929 215.461 708.886 215.461C709.929 220.658 710.619 224.927 710.834 230.11C710.894 231.488 710.954 232.865 711.016 234.284C711.074 235.751 711.132 237.218 711.192 238.729C711.256 240.246 711.321 241.764 711.387 243.327C711.592 248.159 711.788 252.992 711.984 257.824C712.121 261.106 712.259 264.388 712.397 267.67C712.735 275.703 713.066 283.737 713.392 291.771C709.922 291.771 706.453 291.771 702.879 291.771C702.367 290.773 701.856 289.776 701.33 288.749C696.316 279.25 690.715 270.686 684.164 262.167C681.852 258.853 681.852 258.853 681.852 255.86C680.861 255.86 679.87 255.86 678.849 255.86C678.849 254.873 678.849 253.885 678.849 252.868C678.074 252.528 677.3 252.189 676.502 251.839C672.841 249.875 672.841 249.875 668.429 246.415C646.467 230.634 617.895 229.735 591.927 229.395C589.274 229.345 586.62 229.294 583.966 229.24C577.546 229.115 571.126 229.014 564.706 228.928C564.864 276.834 565.028 324.741 565.203 372.648C565.224 378.318 565.244 383.988 565.265 389.659C565.269 390.787 565.273 391.916 565.277 393.079C565.343 411.297 565.405 429.516 565.464 447.734C565.525 466.461 565.591 485.189 565.662 503.916C565.706 515.449 565.746 526.982 565.78 538.516C565.807 547.395 565.841 556.275 565.878 565.155C565.892 568.771 565.904 572.387 565.913 576.004C565.955 592.583 566.076 609.139 566.867 625.702C566.922 626.898 566.977 628.094 567.034 629.326C567.829 644.017 569.873 658.394 581.227 668.828C585.169 671.319 588.9 673.023 593.242 674.813C593.305 677.805 593.303 680.799 593.242 683.79C591.74 685.287 591.74 685.287 587.34 685.467C585.369 685.463 583.398 685.46 581.367 685.457C580.283 685.457 579.199 685.457 578.081 685.457C574.481 685.456 570.881 685.445 567.281 685.433C564.792 685.43 562.302 685.428 559.813 685.426C553.247 685.421 546.682 685.406 540.117 685.389C533.422 685.374 526.728 685.367 520.034 685.36C506.889 685.344 493.745 685.318 480.601 685.287C480.601 681.83 480.601 678.374 480.601 674.813C489.237 670.324 489.237 670.324 492.616 670.324C492.616 669.337 492.616 668.349 492.616 667.332C493.607 667.332 494.598 667.332 495.62 667.332C495.62 666.344 495.62 665.357 495.62 664.339C496.611 664.339 497.602 664.339 498.623 664.339C504.433 648.712 506.582 633.662 506.551 617.041C506.56 615.371 506.568 613.701 506.577 611.981C506.603 606.428 506.607 600.876 506.612 595.323C506.626 591.326 506.641 587.328 506.657 583.331C506.691 574.747 506.713 566.163 506.728 557.579C506.75 545.169 506.789 532.758 506.831 520.347C506.899 500.208 506.954 480.069 507.001 459.93C507.046 440.375 507.098 420.821 507.158 401.266C507.162 400.059 507.165 398.852 507.169 397.609C507.188 391.554 507.206 385.499 507.225 379.444C507.381 329.272 507.515 279.1 507.635 228.928C499.65 229.032 491.666 229.164 483.682 229.32C480.975 229.37 478.267 229.412 475.559 229.446C459.61 229.653 444.929 230.377 429.537 234.913C427.707 235.441 425.878 235.97 423.993 236.514C407.517 242.544 393.992 251.488 384.481 266.334C383.489 266.334 382.498 266.334 381.477 266.334C381.136 267.569 380.795 268.803 380.444 270.075C378.411 275.476 375.835 279.763 372.647 284.541C370.721 287.446 370.721 287.446 369.462 291.771C365.993 291.771 362.523 291.771 358.949 291.771C358.949 266.315 360.535 240.878 361.952 215.461Z" fill="#FFFEFF"/>
<path d="M1191.41 197.506C1193.4 197.506 1195.38 197.506 1197.42 197.506C1200.03 202.7 1199.12 208.727 1199.11 214.444C1199.11 215.915 1199.11 217.386 1199.11 218.902C1199.12 223.888 1199.11 228.875 1199.1 233.862C1199.1 237.45 1199.1 241.038 1199.11 244.627C1199.11 252.458 1199.11 260.289 1199.1 268.12C1199.09 279.765 1199.09 291.409 1199.09 303.054C1199.09 322.64 1199.09 342.225 1199.08 361.811C1199.07 381.211 1199.07 400.611 1199.06 420.011C1199.06 421.216 1199.06 422.421 1199.06 423.663C1199.06 429.782 1199.06 435.901 1199.06 442.02C1199.06 485.394 1199.05 528.767 1199.04 572.141C1199.02 614.285 1199.01 656.429 1199 698.573C1199 699.872 1199 701.17 1199 702.508C1199 715.547 1199 728.586 1199 741.625C1198.99 768.189 1198.99 794.752 1198.99 821.315C1198.99 822.537 1198.99 823.758 1198.99 825.017C1198.97 906.62 1198.95 988.222 1198.92 1069.83C1196.94 1070.81 1194.96 1071.8 1192.91 1072.82C1188.85 1068.77 1189.55 1065.59 1189.51 1060.09C1189.52 1058.7 1189.53 1057.32 1189.54 1055.89C1189.53 1054.42 1189.53 1052.95 1189.53 1051.43C1189.52 1046.45 1189.53 1041.47 1189.54 1036.48C1189.54 1032.9 1189.53 1029.31 1189.53 1025.72C1189.52 1017.9 1189.52 1010.07 1189.53 1002.24C1189.55 990.606 1189.54 978.969 1189.54 967.331C1189.53 947.755 1189.53 928.18 1189.55 908.605C1189.56 889.213 1189.57 869.821 1189.57 850.429C1189.57 849.225 1189.57 848.02 1189.57 846.779C1189.57 841.89 1189.57 837.001 1189.57 832.112C1189.57 786.212 1189.58 740.313 1189.6 694.413C1189.62 653.601 1189.63 612.789 1189.63 571.977C1189.63 569.356 1189.63 566.736 1189.63 564.115C1189.63 562.82 1189.63 561.524 1189.63 560.19C1189.63 553.669 1189.63 547.148 1189.63 540.628C1189.63 539.342 1189.63 538.055 1189.63 536.73C1189.63 502.665 1189.64 468.601 1189.65 434.536C1189.65 433.325 1189.65 432.114 1189.65 430.866C1189.65 425.995 1189.65 421.124 1189.65 416.253C1189.66 399.281 1189.66 382.309 1189.66 365.338C1189.66 343.47 1189.67 321.603 1189.68 299.736C1189.69 288.161 1189.69 276.586 1189.69 265.011C1189.69 256.39 1189.7 247.768 1189.71 239.147C1189.71 235.643 1189.71 232.139 1189.71 228.635C1189.7 223.901 1189.71 219.168 1189.72 214.435C1189.71 213.049 1189.71 211.663 1189.71 210.235C1189.74 200.84 1189.74 200.84 1191.41 197.506Z" fill="white"/>
</svg>
